<svg xmlns="http://www.w3.org/2000/svg" xmlns:svg="http://www.w3.org/2000/svg" xmlns:xlink="http://www.w3.org/1999/xlink" id="svg3912" width="120" height="80" version="1.1"><defs id="defs3914"><linearGradient id="linearGradient4507"><stop style="stop-color:#000;stop-opacity:1" id="stop4509" offset="0"/><stop style="stop-color:#000;stop-opacity:0" id="stop4511" offset="1"/></linearGradient><linearGradient id="linearGradient4513" x1="59.286" x2="59.286" y1="179.117" y2="47.775" gradientUnits="userSpaceOnUse" xlink:href="#linearGradient4507"/></defs><metadata id="metadata3917"/><g id="layer1" transform="translate(0,-972.36218)"><path style="fill:#333;fill-opacity:1;stroke:none" id="rect3963" d="M 9.96875 0 C 4.4424598 0 0 4.014 0 9 L 0 27.5 L 120 27.5 L 120 9 C 120 4.014 115.55754 0 110.03125 0 L 9.96875 0 z" transform="translate(0,972.36218)"/></g><g id="layer15" style="display:none"><path style="fill:#66800f;fill-opacity:1;stroke:none" id="rect3976" d="M 0,27.5 0,71.3125 C 0,76.125375 4.5310348,80 10.15625,80 l 99.6875,0 C 115.46897,80 120,76.125375 120,71.3125 L 120,27.5 0,27.5 z"/></g><g id="layer20" style="display:none"><path id="path4520" d="M 0,27.5 0,71.3125 C 0,76.125375 4.5310348,80 10.15625,80 l 99.6875,0 C 115.46897,80 120,76.125375 120,71.3125 L 120,27.5 0,27.5 z" style="fill:#fa3;fill-opacity:1;stroke:none;display:inline"/></g><g id="layer21" style="display:none"><path style="fill:#ff2a2a;fill-opacity:1;stroke:none;display:inline" id="path4537" d="M 0,27.5 0,71.3125 C 0,76.125375 4.5310348,80 10.15625,80 l 99.6875,0 C 115.46897,80 120,76.125375 120,71.3125 L 120,27.5 0,27.5 z"/></g><g id="layer23" style="display:none"><path id="path4551" d="M 0,27.5 0,71.3125 C 0,76.125375 4.5310348,80 10.15625,80 l 99.6875,0 C 115.46897,80 120,76.125375 120,71.3125 L 120,27.5 0,27.5 z" style="fill:#ade;fill-opacity:1;stroke:none;display:inline"/></g><g id="layer25" style="display:none"><path style="fill:#c6c;fill-opacity:1;stroke:none;display:inline" id="path4565" d="M 0,27.5 0,71.3125 C 0,76.125375 4.5310348,80 10.15625,80 l 99.6875,0 C 115.46897,80 120,76.125375 120,71.3125 L 120,27.5 0,27.5 z"/></g><g id="layer27" style="display:inline"><path id="path4579" d="M 0,27.5 0,71.3125 C 0,76.125375 4.5310348,80 10.15625,80 l 99.6875,0 C 115.46897,80 120,76.125375 120,71.3125 L 120,27.5 0,27.5 z" style="fill:#c6c;fill-opacity:1;stroke:none;display:inline"/></g><g id="layer2" style="display:none"><path style="fill:#666;fill-opacity:1;stroke:none;display:inline" id="path3033" d="M 0,27.5 0,71.3125 C 0,76.125375 4.5310348,80 10.15625,80 l 99.6875,0 C 115.46897,80 120,76.125375 120,71.3125 L 120,27.5 0,27.5 z"/></g><g id="layer16" style="display:inline"><text style="font-size:18px;font-style:normal;font-weight:400;line-height:125%;letter-spacing:0;word-spacing:0;fill:#f9f9f9;fill-opacity:1;stroke:none;font-family:Sans" id="text4490" x="6.945" y="20.643" xml:space="preserve"><tspan id="tspan4492" x="6.945" y="20.643">build status</tspan></text></g><g id="layer17" style="display:none"><text style="font-size:26.40086365px;font-style:normal;font-weight:400;text-align:center;line-height:93.00000072%;letter-spacing:0;word-spacing:0;text-anchor:middle;fill:#f9f9f9;fill-opacity:1;stroke:none;font-family:Sans" id="text4499" x="59.822" y="47.752" xml:space="preserve"><tspan id="tspan4501" x="59.822" y="47.752">success</tspan><tspan id="tspan4503" x="59.822" y="72.305">build</tspan></text></g><g id="layer19" style="display:none"><text id="text4526" x="59.822" y="47.752" xml:space="preserve" style="font-size:26.40086365px;font-style:normal;font-weight:400;text-align:center;line-height:93.00000072%;letter-spacing:0;word-spacing:0;text-anchor:middle;fill:#f9f9f9;fill-opacity:1;stroke:none;display:inline;font-family:Sans"><tspan id="tspan4528" x="59.822" y="47.752">warning</tspan><tspan id="tspan4530" x="59.822" y="72.305">build</tspan></text></g><g id="layer22" style="display:none"><text style="font-size:26.40086365px;font-style:normal;font-weight:400;text-align:center;line-height:93.00000072%;letter-spacing:0;word-spacing:0;text-anchor:middle;fill:#f9f9f9;fill-opacity:1;stroke:none;display:inline;font-family:Sans" id="text4540" x="59.822" y="47.752" xml:space="preserve"><tspan id="tspan4542" x="59.822" y="47.752">failed</tspan><tspan id="tspan4544" x="59.822" y="72.305">build</tspan></text></g><g id="layer24" style="display:none"><text id="text4554" x="59.822" y="47.752" xml:space="preserve" style="font-size:26.40086365px;font-style:normal;font-weight:400;text-align:center;line-height:93.00000072%;letter-spacing:0;word-spacing:0;text-anchor:middle;fill:#f9f9f9;fill-opacity:1;stroke:none;display:inline;font-family:Sans"><tspan id="tspan4556" x="59.822" y="47.752">skipped</tspan><tspan id="tspan4558" x="59.822" y="72.305">build</tspan></text></g><g id="layer26" style="display:none"><text style="font-size:26.40086365px;font-style:normal;font-weight:400;text-align:center;line-height:93.00000072%;letter-spacing:0;word-spacing:0;text-anchor:middle;fill:#f9f9f9;fill-opacity:1;stroke:none;display:inline;font-family:Sans" id="text4568" x="59.822" y="47.752" xml:space="preserve"><tspan id="tspan4570" x="59.822" y="47.752">except</tspan><tspan id="tspan4572" x="59.822" y="72.305">build</tspan></text></g><g id="layer28" style="display:inline"><text id="text4582" x="59.822" y="47.752" xml:space="preserve" style="font-size:26.40086365px;font-style:normal;font-weight:400;text-align:center;line-height:93.00000072%;letter-spacing:0;word-spacing:0;text-anchor:middle;fill:#f9f9f9;fill-opacity:1;stroke:none;display:inline;font-family:Sans"><tspan id="tspan4584" x="59.822" y="47.752">retry</tspan><tspan id="tspan4586" x="59.822" y="72.305">build</tspan></text></g><g id="layer3" style="display:none"><text style="font-size:24.62234879px;font-style:normal;font-weight:400;text-align:center;line-height:93.00000072%;letter-spacing:0;word-spacing:0;text-anchor:middle;fill:#f9f9f9;fill-opacity:1;stroke:none;display:inline;font-family:Sans" id="text3036" x="59.821" y="47.916" xml:space="preserve"><tspan id="tspan3038" x="59.821" y="47.916">unknown</tspan><tspan id="tspan3040" x="59.821" y="70.815">build</tspan></text></g><g id="layer18" style="display:inline"><rect style="fill:url(#linearGradient4513);fill-opacity:1;stroke:none" id="rect4505" width="120" height="80" x="0" y="0" rx="10.154" ry="8.688"/></g></svg>